nColumns=19
nRows=110
DataType=double
version=3
OpenSimVersion=4.1
endheader
time	ground_force_1_vx	ground_force_1_vy	ground_force_1_vz	ground_force_1_px	ground_force_1_py	ground_force_1_pz	ground_force_1_mx	ground_force_1_my	ground_force_1_mz	ground_force_2_vx	ground_force_2_vy	ground_force_2_vz	ground_force_2_px	ground_force_2_py	ground_force_2_pz	ground_force_2_mx	ground_force_2_my	ground_force_2_mz
3.67	0	0	0	0	0	0	0	0	0	0	0	0	0	0	0	0	0	0
3.68	0	0	0	0	0	0	0	0	0	0	0	0	0	0	0	0	0	0
3.69	0	0	0	0	0	0	0	0	0	0	0	0	0	0	0	0	0	0
3.7	0	0	0	0	0	0	0	0	0	-12.6896	26.2094	-9.06612	1.29479	0	-0.375091	0	-3.50435	0
3.71	0	0	0	0	0	0	0	0	0	-39.5237	101.515	-16.3093	1.31039	0	-0.378767	0	-5.04595	0
3.72	0	0	0	0	0	0	0	0	0	-81.6393	301.67	-25.5554	1.30233	0	-0.3775	0	-5.8624	0
3.73	0	0	0	0	0	0	0	0	0	-112.979	671.17	-35.0567	1.29192	0	-0.373647	0	-5.62665	0
3.74	0	0	0	0	0	0	0	0	0	-129.742	1099.54	-47.7764	1.27967	0	-0.370641	0	-4.25531	0
3.75	0	0	0	0	0	0	0	0	0	-163.162	1376.77	-68.4861	1.26563	0	-0.371139	0	-1.97102	0
3.76	0	0	0	0	0	0	0	0	0	-215.153	1508.55	-90.0104	1.24655	0	-0.373952	-0	0.78056	-0
3.77	0	0	0	0	0	0	0	0	0	-253.123	1654.81	-100.055	1.21888	0	-0.375013	-0	3.57233	-0
3.78	0	0	0	0	0	0	0	0	0	-236.824	1834.59	-101.996	1.18644	0	-0.37483	-0	6.20325	-0
3.79	0	0	0	0	0	0	0	0	0	-185.916	1977.25	-104.743	1.15383	0	-0.375391	-0	8.67069	-0
3.8	0	0	0	0	0	0	0	0	0	-126.289	2045.11	-107.499	1.12069	0	-0.37583	-0	10.9916	-0
3.81	0	0	0	0	0	0	0	0	0	-57.4743	2036.6	-107.893	1.08613	0	-0.376152	-0	13.0816	-0
3.82	0	0	0	0	0	0	0	0	0	21.5431	1958.35	-105.353	1.04875	0	-0.37635	-0	14.7546	-0
3.83	0	0	0	0	0	0	0	0	0	105.121	1821.3	-99.8721	1.00891	0	-0.376431	-0	15.7965	-0
3.84	0	0	0	0	0	0	0	0	0	180.518	1631.55	-91.9799	0.968236	0	-0.376354	-0	16.0476	-0
3.85	0	0	0	0	0	0	0	0	0	233.87	1391.15	-83.7039	0.928051	0	-0.37602	-0	15.4484	-0
3.86	0	0	0	0	0	0	0	0	0	263.355	1114.82	-77.0489	0.888813	0	-0.376374	-0	14.0393	-0
3.87	0	0	0	0	0	0	0	0	0	262.833	833.491	-69.441	0.85077	0	-0.377011	-0	11.9507	-0
3.88	0	0	0	0	0	0	0	0	0	231.475	576.367	-58.4731	0.814577	0	-0.376328	-0	9.4114	-0
3.89	0	0	0	0	0	0	0	0	0	178.457	359.414	-46.4545	0.778099	0	-0.376362	-0	6.73769	-0
3.9	0	0	0	0	0	0	0	0	0	116.287	194.277	-34.558	0.736867	0	-0.38005	-0	4.27143	-0
3.91	0	0	0	0	0	0	0	0	0	59.7222	88.1948	-21.9054	0.701277	0	-0.379864	-0	2.30622	-0
3.92	0	0	0	0	0	0	0	0	0	23.0763	33.5073	-11.0148	0.71682	0	-0.359953	-0	1.0269	-0
3.93	0	0	0	0	0	0	0	0	0	6.84673	11.4208	-5.05258	0.897397	0	-0.331131	-0	0.456551	-0
3.94	0	0	0	0	0	0	0	0	0	0	0	0	0	0	0	0	0	0
3.95	0	0	0	0	0	0	0	0	0	0	0	0	0	0	0	0	0	0
3.96	0	0	0	0	0	0	0	0	0	0	0	0	0	0	0	0	0	0
3.97	0	0	0	0	0	0	0	0	0	0	0	0	0	0	0	0	0	0
3.98	0	0	0	0	0	0	0	0	0	0	0	0	0	0	0	0	0	0
3.99	0	0	0	0	0	0	0	0	0	0	0	0	0	0	0	0	0	0
4	0	0	0	0	0	0	0	0	0	0	0	0	0	0	0	0	0	0
4.01	-7.51287	36.5326	-10.3825	1.31962	0	-0.402703	-0	2.76586	-0	0	0	0	0	0	0	0	0	0
4.02	-22.3232	141.942	-15.0866	1.32524	0	-0.396859	-0	3.47188	-0	0	0	0	0	0	0	0	0	0
4.03	-46.4672	406.451	-14.989	1.32631	0	-0.391339	-0	3.9707	-0	0	0	0	0	0	0	0	0	0
4.04	-80.635	821.426	-7.22833	1.31567	0	-0.387322	-0	3.99779	-0	0	0	0	0	0	0	0	0	0
4.05	-131.876	1213.01	2.19242	1.30039	0	-0.385736	-0	3.41467	-0	0	0	0	0	0	0	0	0	0
4.06	-187.942	1424.69	4.70725	1.28303	0	-0.386837	-0	2.19996	-0	0	0	0	0	0	0	0	0	0
4.07	-227.855	1504.39	2.14333	1.26124	0	-0.387985	-0	0.379484	-0	0	0	0	0	0	0	0	0	0
4.08	-249.619	1601.35	0.337261	1.23556	0	-0.388243	0	-1.99181	0	0	0	0	0	0	0	0	0	0
4.09	-242.462	1754.95	2.06935	1.20826	0	-0.388443	0	-4.7917	0	0	0	0	0	0	0	0	0	0
4.1	-210.316	1898.45	8.03287	1.17852	0	-0.388881	0	-7.79766	0	0	0	0	0	0	0	0	0	0
4.11	-162.277	1980.33	16.4403	1.14559	0	-0.389572	0	-10.7002	0	0	0	0	0	0	0	0	0	0
4.12	-97.7202	1995	25.126	1.10984	0	-0.390388	0	-13.1616	0	0	0	0	0	0	0	0	0	0
4.13	-18.2653	1952.99	33.4673	1.07333	0	-0.391414	0	-14.8775	0	0	0	0	0	0	0	0	0	0
4.14	68.3761	1857.78	42.1278	1.03639	0	-0.392547	0	-15.6028	0	0	0	0	0	0	0	0	0	0
4.15	152.799	1704.33	50.2048	0.998468	0	-0.393749	0	-15.1556	0	0	0	0	0	0	0	0	0	0
4.16	220.881	1490.91	55.0479	0.959499	0	-0.39482	0	-13.4502	0	0	0	0	0	0	0	0	0	0
4.17	259.547	1227.77	53.9665	0.919403	0	-0.395542	0	-10.5754	0	0	0	0	0	0	0	0	0	0
4.18	264.691	938.33	45.5465	0.879278	0	-0.396354	0	-6.86992	0	0	0	0	0	0	0	0	0	0
4.19	241.609	657.321	32.3273	0.842461	0	-0.397241	0	-2.91095	0	0	0	0	0	0	0	0	0	0
4.2	196.488	418.076	19.7113	0.812207	0	-0.396845	-0	0.630198	-0	0	0	0	0	0	0	0	0	0
4.21	139.621	236.842	10.5001	0.785887	0	-0.39376	-0	3.20835	-0	0	0	0	0	0	0	0	0	0
4.22	81.0154	114.334	4.0632	0.752554	0	-0.390095	-0	4.5727	-0	0	0	0	0	0	0	0	0	0
4.23	35.0611	44.9279	0.169637	0.699561	0	-0.386022	-0	4.80367	-0	0	0	0	0	0	0	0	0	0
4.24	10.2734	14.7151	-1.04979	0.679641	0	-0.35434	-0	4.23026	-0	0	0	0	0	0	0	0	0	0
4.25	0	0	0	0	0	0	0	0	0	0	0	0	0	0	0	0	0	0
4.26	0	0	0	0	0	0	0	0	0	0	0	0	0	0	0	0	0	0
4.27	0	0	0	0	0	0	0	0	0	0	0	0	0	0	0	0	0	0
4.28	0	0	0	0	0	0	0	0	0	0	0	0	0	0	0	0	0	0
4.29	0	0	0	0	0	0	0	0	0	0	0	0	0	0	0	0	0	0
4.3	0	0	0	0	0	0	0	0	0	0	0	0	0	0	0	0	0	0
4.31	0	0	0	0	0	0	0	0	0	0	0	0	0	0	0	0	0	0
4.32	0	0	0	0	0	0	0	0	0	0	0	0	0	0	0	0	0	0
4.33	0	0	0	0	0	0	0	0	0	-5.67213	18.8764	-5.36751	1.20305	0	-0.3514	-0	1.66307	-0
4.34	0	0	0	0	0	0	0	0	0	-21.9693	69.2594	-9.17991	1.26698	0	-0.420318	-0	1.65349	-0
4.35	0	0	0	0	0	0	0	0	0	-52.127	220.662	-10.3873	1.29489	0	-0.429735	-0	1.08041	-0
4.36	0	0	0	0	0	0	0	0	0	-83.6169	535.118	-4.5719	1.298	0	-0.424913	0	-0.253387	0
4.37	0	0	0	0	0	0	0	0	0	-114.563	949.368	7.14915	1.28847	0	-0.421086	0	-2.27625	0
4.38	0	0	0	0	0	0	0	0	0	-156.556	1254.92	17.7488	1.27408	0	-0.421417	0	-4.5793	0
4.39	0	0	0	0	0	0	0	0	0	-203.907	1383.76	25.402	1.2532	0	-0.424504	0	-6.49183	0
4.4	0	0	0	0	0	0	0	0	0	-244.507	1502.7	34.1779	1.22324	0	-0.426501	0	-7.24837	0
4.41	0	0	0	0	0	0	0	0	0	-245.594	1694.82	40.7171	1.19114	0	-0.426062	0	-6.21703	0
4.42	0	0	0	0	0	0	0	0	0	-204.191	1888.02	38.4453	1.16014	0	-0.424938	0	-3.16531	0
4.43	0	0	0	0	0	0	0	0	0	-144.242	2013.82	28.5047	1.12753	0	-0.423874	-0	1.57465	-0
4.44	0	0	0	0	0	0	0	0	0	-73.4592	2067.43	15.9012	1.09231	0	-0.4228	-0	7.18055	-0
4.45	0	0	0	0	0	0	0	0	0	4.92518	2057.53	3.46093	1.05497	0	-0.42153	-0	12.6151	-0
4.46	0	0	0	0	0	0	0	0	0	86.5612	1983.47	-8.63384	1.01693	0	-0.419995	-0	16.9414	-0
4.47	0	0	0	0	0	0	0	0	0	168.871	1843.99	-19.6034	0.978932	0	-0.417949	-0	19.5482	-0
4.48	0	0	0	0	0	0	0	0	0	240.308	1641.13	-28.1699	0.941225	0	-0.415523	-0	20.24	-0
4.49	0	0	0	0	0	0	0	0	0	285.838	1385.59	-34.0636	0.903783	0	-0.412934	-0	19.1986	-0
4.5	0	0	0	0	0	0	0	0	0	296.768	1096.68	-37.9065	0.865381	0	-0.410665	-0	16.8531	-0
4.51	0	0	0	0	0	0	0	0	0	276.284	801.073	-39.5401	0.825166	0	-0.409916	-0	13.7244	-0
4.52	0	0	0	0	0	0	0	0	0	228.29	533.229	-37.1416	0.787177	0	-0.410268	-0	10.3125	-0
4.53	0	0	0	0	0	0	0	0	0	163.33	319.076	-30.9294	0.758213	0	-0.4092	-0	7.04619	-0
4.54	0	0	0	0	0	0	0	0	0	98.8652	164.639	-24.0528	0.738207	0	-0.406729	-0	4.25841	-0
4.55	0	0	0	0	0	0	0	0	0	47.3792	68.7479	-17.6454	0.717577	0	-0.40679	-0	2.16586	-0
4.56	0	0	0	0	0	0	0	0	0	15.8217	23.8541	-10.3409	0.712446	0	-0.38793	-0	0.868735	-0
4.57	0	0	0	0	0	0	0	0	0	0	0	0	0	0	0	0	0	0
4.58	0	0	0	0	0	0	0	0	0	0	0	0	0	0	0	0	0	0
4.59	0	0	0	0	0	0	0	0	0	0	0	0	0	0	0	0	0	0
4.6	0	0	0	0	0	0	0	0	0	0	0	0	0	0	0	0	0	0
4.61	0	0	0	0	0	0	0	0	0	0	0	0	0	0	0	0	0	0
4.62	0	0	0	0	0	0	0	0	0	0	0	0	0	0	0	0	0	0
4.63	0	0	0	0	0	0	0	0	0	0	0	0	0	0	0	0	0	0
4.64	-7.23275	25.0536	-6.11236	1.3112	0	-0.372398	-0	2.3906	-0	0	0	0	0	0	0	0	0	0
4.65	-24.4244	100.152	-7.94663	1.35904	0	-0.388658	-0	1.24063	-0	0	0	0	0	0	0	0	0	0
4.66	-55.6136	305.054	-6.25375	1.35013	0	-0.389422	0	-0.236231	0	0	0	0	0	0	0	0	0	0
4.67	-92.507	671.972	3.51213	1.33262	0	-0.384824	0	-1.67817	0	0	0	0	0	0	0	0	0	0
4.68	-138.998	1080.21	14.1525	1.31611	0	-0.38188	0	-2.64826	0	0	0	0	0	0	0	0	0	0
4.69	-201.615	1350.64	12.2657	1.30221	0	-0.381816	0	-2.87655	0	0	0	0	0	0	0	0	0	0
4.7	-260.676	1466.98	-2.15766	1.28567	0	-0.381982	0	-2.48803	0	0	0	0	0	0	0	0	0	0
4.71	-296.948	1564.17	-19.1892	1.26189	0	-0.380827	0	-1.98717	0	0	0	0	0	0	0	0	0	0
4.72	-295.319	1711.79	-31.7536	1.23246	0	-0.379522	0	-1.9972	0	0	0	0	0	0	0	0	0	0
4.73	-257.223	1861.23	-36.3259	1.19954	0	-0.378628	0	-2.9502	0	0	0	0	0	0	0	0	0	0
4.74	-202.975	1956.31	-33.3054	1.16576	0	-0.378271	0	-4.90354	0	0	0	0	0	0	0	0	0	0
4.75	-138.113	1985.54	-25.2508	1.13161	0	-0.378069	0	-7.54405	0	0	0	0	0	0	0	0	0	0
4.76	-64.0808	1958.19	-14.1605	1.09647	0	-0.378196	0	-10.3233	0	0	0	0	0	0	0	0	0	0
